<svg xmlns="http://www.w3.org/2000/svg" xmlns:xlink="http://www.w3.org/1999/xlink" width="1360" height="1760"><g transform="translate(0 0)"><path d="M0 0h1360v1760H0z" fill="#fff"/><path d="M480 605c0-2.76 2.24-5 5-5h150c2.76 0 5 2.24 5 5v110c0 2.76-2.24 5-5 5H485c-2.76 0-5-2.24-5-5z" stroke="#000" stroke-width="2" fill="#fff"/><use xlink:href="#a" transform="matrix(1,0,0,1,488,608) translate(-0.875 55.6)"/><path d="M220 345c0-2.76 2.24-5 5-5h150c2.76 0 5 2.24 5 5v110c0 2.76-2.24 5-5 5H225c-2.76 0-5-2.24-5-5z" stroke="#000" stroke-width="2" fill="#fff"/><use xlink:href="#b" transform="matrix(1,0,0,1,228,348) translate(47.55 55.6)"/><path d="M480 345c0-2.76 2.24-5 5-5h150c2.76 0 5 2.24 5 5v110c0 2.76-2.24 5-5 5H485c-2.76 0-5-2.24-5-5z" stroke="#000" stroke-width="2" fill="#fff"/><use xlink:href="#c" transform="matrix(1,0,0,1,488,348) translate(49.025 55.6)"/><path d="M760 345c0-2.76 2.24-5 5-5h150c2.76 0 5 2.24 5 5v110c0 2.76-2.24 5-5 5H765c-2.76 0-5-2.24-5-5z" stroke="#000" stroke-width="2" fill="#fff"/><use xlink:href="#d" transform="matrix(1,0,0,1,768,348) translate(38.9 55.6)"/><path d="M560 460v139" stroke="#000" stroke-width="2" fill="none"/><path d="M560 599l-4.64-14.27h9.28z" fill="#fff"/><path d="M560.73 600h-1.46L554 583.73h12zm-4-14.27l3.27 10.03 3.26-10.03z"/><path d="M300 460v65c0 2.76 2.24 5 5 5h250c2.76 0 5 2.24 5 5v65" stroke="#000" stroke-width="2" fill="none"/><path d="M560 600l-4.64-14.27h9.28z" fill="#fff"/><path d="M561.05 600h-2.1L554 584.73h12zm-4.3-13.27l3.25 10.03 3.26-10.03z"/><path d="M840 460v65c0 2.76-2.24 5-5 5H565c-2.76 0-5 2.24-5 5v65" stroke="#000" stroke-width="2" fill="none"/><path d="M560 600l-4.64-14.27h9.28z" fill="#fff"/><path d="M561.05 600h-2.1L554 584.73h12zm-4.3-13.27l3.25 10.03 3.26-10.03z"/><path d="M480 805c0-2.76 2.24-5 5-5h150c2.76 0 5 2.24 5 5v110c0 2.76-2.24 5-5 5H485c-2.76 0-5-2.24-5-5z" stroke="#000" stroke-width="2" fill="#fff"/><use xlink:href="#e" transform="matrix(1,0,0,1,488,808) translate(27.549999999999997 55.6)"/><path d="M560 720v79" stroke="#000" stroke-width="2" fill="none"/><path d="M574.85 784.15L560 799l-14.85-14.85L560 769z" fill="#fff"/><path d="M576.26 784.16L560.4 800h-.8l-15.86-15.84 16.26-16.6zm-29.7-.02L560 797.6l13.44-13.46-13.44-13.7z"/><use xlink:href="#f" transform="matrix(1,0,0,1,568,725.2) translate(0 14.4)"/><use xlink:href="#g" transform="matrix(1,0,0,1,568,761.2) translate(0 14.4)"/><defs><path d="M240 0l2-218c-23 76-54 145-80 218h-23L58-218 59 0H30v-248h44l77 211c21-75 51-140 76-211h43V0h-30" id="h"/><path d="M84 4C-5 8 30-112 23-190h32v120c0 31 7 50 39 49 72-2 45-101 50-169h31l1 190h-30c-1-10 1-25-2-33-11 22-28 36-60 37" id="i"/><path d="M135-143c-3-34-86-38-87 0 15 53 115 12 119 90S17 21 10-45l28-5c4 36 97 45 98 0-10-56-113-15-118-90-4-57 82-63 122-42 12 7 21 19 24 35" id="j"/><path d="M24-231v-30h32v30H24zM24 0v-190h32V0H24" id="k"/><path d="M96-169c-40 0-48 33-48 73s9 75 48 75c24 0 41-14 43-38l32 2c-6 37-31 61-74 61-59 0-76-41-82-99-10-93 101-131 147-64 4 7 5 14 7 22l-32 3c-4-21-16-35-41-35" id="l"/><path d="M141-36C126-15 110 5 73 4 37 3 15-17 15-53c-1-64 63-63 125-63 3-35-9-54-41-54-24 1-41 7-42 31l-33-3c5-37 33-52 76-52 45 0 72 20 72 64v82c-1 20 7 32 28 27v20c-31 9-61-2-59-35zM48-53c0 20 12 33 32 33 41-3 63-29 60-74-43 2-92-5-92 41" id="m"/><path d="M24 0v-261h32V0H24" id="n"/><path d="M33 0v-248h34V0H33" id="o"/><path d="M117-194c89-4 53 116 60 194h-32v-121c0-31-8-49-39-48C34-167 62-67 57 0H25l-1-190h30c1 10-1 24 2 32 11-22 29-35 61-36" id="p"/><path d="M59-47c-2 24 18 29 38 22v24C64 9 27 4 27-40v-127H5v-23h24l9-43h21v43h35v23H59v120" id="q"/><path d="M114-163C36-179 61-72 57 0H25l-1-190h30c1 12-1 29 2 39 6-27 23-49 58-41v29" id="r"/><path d="M210-169c-67 3-38 105-44 169h-31v-121c0-29-5-50-35-48C34-165 62-65 56 0H25l-1-190h30c1 10-1 24 2 32 10-44 99-50 107 0 11-21 27-35 58-36 85-2 47 119 55 194h-31v-121c0-29-5-49-35-48" id="s"/><path d="M100-194c63 0 86 42 84 106H49c0 40 14 67 53 68 26 1 43-12 49-29l28 8c-11 28-37 45-77 45C44 4 14-33 15-96c1-61 26-98 85-98zm52 81c6-60-76-77-97-28-3 7-6 17-6 28h103" id="t"/><g id="a"><use transform="matrix(0.05,0,0,0.05,0,0)" xlink:href="#h"/><use transform="matrix(0.05,0,0,0.05,14.950000000000001,0)" xlink:href="#i"/><use transform="matrix(0.05,0,0,0.05,24.950000000000003,0)" xlink:href="#j"/><use transform="matrix(0.05,0,0,0.05,33.95,0)" xlink:href="#k"/><use transform="matrix(0.05,0,0,0.05,37.900000000000006,0)" xlink:href="#l"/><use transform="matrix(0.05,0,0,0.05,46.900000000000006,0)" xlink:href="#m"/><use transform="matrix(0.05,0,0,0.05,56.900000000000006,0)" xlink:href="#n"/><use transform="matrix(0.05,0,0,0.05,60.85,0)" xlink:href="#o"/><use transform="matrix(0.05,0,0,0.05,65.85000000000001,0)" xlink:href="#p"/><use transform="matrix(0.05,0,0,0.05,75.85000000000001,0)" xlink:href="#j"/><use transform="matrix(0.05,0,0,0.05,84.85000000000001,0)" xlink:href="#q"/><use transform="matrix(0.05,0,0,0.05,89.85000000000001,0)" xlink:href="#r"/><use transform="matrix(0.05,0,0,0.05,95.80000000000001,0)" xlink:href="#i"/><use transform="matrix(0.05,0,0,0.05,105.80000000000001,0)" xlink:href="#s"/><use transform="matrix(0.05,0,0,0.05,120.75,0)" xlink:href="#t"/><use transform="matrix(0.05,0,0,0.05,130.75,0)" xlink:href="#p"/><use transform="matrix(0.05,0,0,0.05,140.75,0)" xlink:href="#q"/></g><path d="M143 4C61 4 22-44 18-125c-5-107 100-154 193-111 17 8 29 25 37 43l-32 9c-13-25-37-40-76-40-61 0-88 39-88 99 0 61 29 100 91 101 35 0 62-11 79-27v-45h-74v-28h105v86C228-13 192 4 143 4" id="u"/><g id="b"><use transform="matrix(0.05,0,0,0.05,0,0)" xlink:href="#u"/><use transform="matrix(0.05,0,0,0.05,14,0)" xlink:href="#i"/><use transform="matrix(0.05,0,0,0.05,24,0)" xlink:href="#k"/><use transform="matrix(0.05,0,0,0.05,27.950000000000003,0)" xlink:href="#q"/><use transform="matrix(0.05,0,0,0.05,32.95,0)" xlink:href="#m"/><use transform="matrix(0.05,0,0,0.05,42.95,0)" xlink:href="#r"/></g><path d="M30-248c87 1 191-15 191 75 0 78-77 80-158 76V0H30v-248zm33 125c57 0 124 11 124-50 0-59-68-47-124-48v98" id="v"/><path d="M100-194c62-1 85 37 85 99 1 63-27 99-86 99S16-35 15-95c0-66 28-99 85-99zM99-20c44 1 53-31 53-75 0-43-8-75-51-75s-53 32-53 75 10 74 51 75" id="w"/><g id="c"><use transform="matrix(0.05,0,0,0.05,0,0)" xlink:href="#v"/><use transform="matrix(0.05,0,0,0.05,12,0)" xlink:href="#k"/><use transform="matrix(0.05,0,0,0.05,15.949999999999998,0)" xlink:href="#m"/><use transform="matrix(0.05,0,0,0.05,25.950000000000003,0)" xlink:href="#p"/><use transform="matrix(0.05,0,0,0.05,35.95,0)" xlink:href="#w"/></g><path d="M127-220V0H93v-220H8v-28h204v28h-85" id="x"/><path d="M115-194c55 1 70 41 70 98S169 2 115 4C84 4 66-9 55-30l1 105H24l-1-265h31l2 30c10-21 28-34 59-34zm-8 174c40 0 45-34 45-75s-6-73-45-74c-42 0-51 32-51 76 0 43 10 73 51 73" id="y"/><g id="d"><use transform="matrix(0.05,0,0,0.05,0,0)" xlink:href="#x"/><use transform="matrix(0.05,0,0,0.05,10.3,0)" xlink:href="#r"/><use transform="matrix(0.05,0,0,0.05,16.25,0)" xlink:href="#i"/><use transform="matrix(0.05,0,0,0.05,26.25,0)" xlink:href="#s"/><use transform="matrix(0.05,0,0,0.05,41.2,0)" xlink:href="#y"/><use transform="matrix(0.05,0,0,0.05,51.2,0)" xlink:href="#t"/><use transform="matrix(0.05,0,0,0.05,61.2,0)" xlink:href="#q"/></g><path d="M185-189c-5-48-123-54-124 2 14 75 158 14 163 119 3 78-121 87-175 55-17-10-28-26-33-46l33-7c5 56 141 63 141-1 0-78-155-14-162-118-5-82 145-84 179-34 5 7 8 16 11 25" id="z"/><path d="M106-169C34-169 62-67 57 0H25v-261h32l-1 103c12-21 28-36 61-36 89 0 53 116 60 194h-32v-121c2-32-8-49-39-48" id="A"/><g id="e"><use transform="matrix(0.05,0,0,0.05,0,0)" xlink:href="#h"/><use transform="matrix(0.05,0,0,0.05,14.950000000000001,0)" xlink:href="#i"/><use transform="matrix(0.05,0,0,0.05,24.950000000000003,0)" xlink:href="#j"/><use transform="matrix(0.05,0,0,0.05,33.95,0)" xlink:href="#k"/><use transform="matrix(0.05,0,0,0.05,37.900000000000006,0)" xlink:href="#l"/><use transform="matrix(0.05,0,0,0.05,46.900000000000006,0)" xlink:href="#z"/><use transform="matrix(0.05,0,0,0.05,58.900000000000006,0)" xlink:href="#A"/><use transform="matrix(0.05,0,0,0.05,68.9,0)" xlink:href="#w"/><use transform="matrix(0.05,0,0,0.05,78.9,0)" xlink:href="#y"/></g><path d="M101-251c68 0 85 55 85 127S166 4 100 4C33 4 14-52 14-124c0-73 17-127 87-127zm-1 229c47 0 54-49 54-102s-4-102-53-102c-51 0-55 48-55 102 0 53 5 102 54 102" id="B"/><path d="M33 0v-38h34V0H33" id="C"/><path d="M80-196l47-18 7 23-49 13 32 44-20 13-27-46-27 45-21-12 33-44-49-13 8-23 47 19-2-53h23" id="D"/><g id="f"><use transform="matrix(0.05,0,0,0.05,0,0)" xlink:href="#B"/><use transform="matrix(0.05,0,0,0.05,10,0)" xlink:href="#C"/><use transform="matrix(0.05,0,0,0.05,15,0)" xlink:href="#C"/><use transform="matrix(0.05,0,0,0.05,20,0)" xlink:href="#D"/></g><path d="M27 0v-27h64v-190l-56 39v-29l58-41h29v221h61V0H27" id="E"/><use transform="matrix(0.05,0,0,0.05,0,0)" xlink:href="#E" id="g"/></defs></g></svg>