<svg xmlns="http://www.w3.org/2000/svg" xmlns:xlink="http://www.w3.org/1999/xlink" width="1360" height="1760"><g transform="translate(0 0)"><path d="M0 0h1360v1760H0z" fill="#fff"/><path d="M520 165c0-2.76 2.24-5 5-5h150c2.76 0 5 2.24 5 5v110c0 2.76-2.24 5-5 5H525c-2.76 0-5-2.24-5-5z" stroke="#000" stroke-width="2" fill="#fff"/><use xlink:href="#a" transform="matrix(1,0,0,1,528,168) translate(32.625 55.6)"/><use xlink:href="#b" transform="matrix(1,0,0,1,528,168) translate(82.525 55.6)"/><path d="M220 445c0-2.76 2.24-5 5-5h150c2.76 0 5 2.24 5 5v110c0 2.76-2.24 5-5 5H225c-2.76 0-5-2.24-5-5z" stroke="#000" stroke-width="2" fill="#fff"/><use xlink:href="#a" transform="matrix(1,0,0,1,228,448) translate(30.574999999999996 55.6)"/><use xlink:href="#c" transform="matrix(1,0,0,1,228,448) translate(80.475 55.6)"/><path d="M520 445c0-2.76 2.24-5 5-5h150c2.76 0 5 2.24 5 5v110c0 2.76-2.24 5-5 5H525c-2.76 0-5-2.24-5-5z" stroke="#000" stroke-width="2" fill="#fff"/><use xlink:href="#a" transform="matrix(1,0,0,1,528,448) translate(24.074999999999996 55.6)"/><use xlink:href="#d" transform="matrix(1,0,0,1,528,448) translate(73.975 55.6)"/><path d="M820 445c0-2.76 2.24-5 5-5h150c2.76 0 5 2.24 5 5v110c0 2.76-2.24 5-5 5H825c-2.76 0-5-2.24-5-5z" stroke="#000" stroke-width="2" fill="#fff"/><use xlink:href="#a" transform="matrix(1,0,0,1,828,448) translate(19.099999999999994 55.6)"/><use xlink:href="#e" transform="matrix(1,0,0,1,828,448) translate(69 55.6)"/><path d="M600 440V281" stroke="#000" stroke-width="2" fill="none"/><path d="M604.64 295.27h-9.28L600 281z" fill="#fff"/><path d="M606 296.27h-12l5.27-16.27h1.46zm-9.26-2h6.52L600 284.24z"/><path d="M300 440v-75c0-2.76 2.24-5 5-5h290c2.76 0 5-2.24 5-5v-75" stroke="#000" stroke-width="2" fill="none"/><path d="M604.64 294.27h-9.28L600 280z" fill="#fff"/><path d="M606 295.27h-12l4.95-15.27h2.1zm-9.26-2h6.52L600 283.24z"/><path d="M900 440v-75c0-2.76-2.24-5-5-5H605c-2.76 0-5-2.24-5-5v-75" stroke="#000" stroke-width="2" fill="none"/><path d="M604.64 294.27h-9.28L600 280z" fill="#fff"/><path d="M606 295.27h-12l4.95-15.27h2.1zm-9.26-2h6.52L600 283.24z"/><path d="M520 705c0-2.76 2.24-5 5-5h150c2.76 0 5 2.24 5 5v110c0 2.76-2.24 5-5 5H525c-2.76 0-5-2.24-5-5z" stroke="#000" stroke-width="2" fill="#fff"/><use xlink:href="#a" transform="matrix(1,0,0,1,528,708) translate(11.649999999999991 55.6)"/><use xlink:href="#f" transform="matrix(1,0,0,1,528,708) translate(61.55 55.6)"/><path d="M600 560v139" stroke="#000" stroke-width="2" fill="none"/><path d="M614.85 684.15L600 699l-14.85-14.85L600 669z"/><path d="M616.26 684.16L600.4 700h-.8l-15.86-15.84 16.26-16.6zm-29.7-.02L600 697.6l13.44-13.46-13.44-13.7z"/><use xlink:href="#g" transform="matrix(1,0,0,1,608,565.2) translate(0 14.4)"/><use xlink:href="#h" transform="matrix(1,0,0,1,608,642.5333333333333) translate(0 14.4)"/><path d="M300 560v64.5c0 2.76 2.24 5 5 5h235.33c2.76 0 5 2.24 5 5V699" stroke="#000" stroke-width="2" fill="none"/><path d="M560.18 684.15L545.33 699l-14.85-14.85L545.33 669z"/><path d="M561.6 684.16L545.74 700h-.83l-15.84-15.84 16.25-16.6zm-29.7-.02l13.43 13.45 13.45-13.46-13.45-13.7z"/><use xlink:href="#g" transform="matrix(1,0,0,1,308,565.2) translate(0 14.4)"/><use xlink:href="#h" transform="matrix(1,0,0,1,553.3333333333333,639.8666666666666) translate(0 14.4)"/><path d="M900 560v64.5c0 2.76-2.24 5-5 5H665c-2.76 0-5 2.24-5 5V699" stroke="#000" stroke-width="2" fill="none"/><path d="M674.85 684.15L660 699l-14.85-14.85L660 669z"/><path d="M676.26 684.16L660.4 700h-.8l-15.86-15.84 16.26-16.6zm-29.7-.02L660 697.6l13.44-13.46-13.44-13.7z"/><g><use xlink:href="#g" transform="matrix(1,0,0,1,908.0000000000001,565.2) translate(0 14.4)"/></g><g><use xlink:href="#h" transform="matrix(1,0,0,1,668,641.2) translate(0 14.4)"/></g><defs><path d="M212-179c-10-28-35-45-73-45-59 0-87 40-87 99 0 60 29 101 89 101 43 0 62-24 78-52l27 14C228-24 195 4 139 4 59 4 22-46 18-125c-6-104 99-153 187-111 19 9 31 26 39 46" id="i"/><path d="M24 0v-261h32V0H24" id="j"/><path d="M141-36C126-15 110 5 73 4 37 3 15-17 15-53c-1-64 63-63 125-63 3-35-9-54-41-54-24 1-41 7-42 31l-33-3c5-37 33-52 76-52 45 0 72 20 72 64v82c-1 20 7 32 28 27v20c-31 9-61-2-59-35zM48-53c0 20 12 33 32 33 41-3 63-29 60-74-43 2-92-5-92 41" id="k"/><path d="M135-143c-3-34-86-38-87 0 15 53 115 12 119 90S17 21 10-45l28-5c4 36 97 45 98 0-10-56-113-15-118-90-4-57 82-63 122-42 12 7 21 19 24 35" id="l"/><g id="a"><use transform="matrix(0.05,0,0,0.05,0,0)" xlink:href="#i"/><use transform="matrix(0.05,0,0,0.05,12.950000000000001,0)" xlink:href="#j"/><use transform="matrix(0.05,0,0,0.05,16.900000000000002,0)" xlink:href="#k"/><use transform="matrix(0.05,0,0,0.05,26.900000000000002,0)" xlink:href="#l"/><use transform="matrix(0.05,0,0,0.05,35.900000000000006,0)" xlink:href="#l"/></g><path d="M63-220v92h138v28H63V0H30v-248h175v28H63" id="m"/><path d="M24-231v-30h32v30H24zM24 0v-190h32V0H24" id="n"/><path d="M100-194c63 0 86 42 84 106H49c0 40 14 67 53 68 26 1 43-12 49-29l28 8c-11 28-37 45-77 45C44 4 14-33 15-96c1-61 26-98 85-98zm52 81c6-60-76-77-97-28-3 7-6 17-6 28h103" id="o"/><g id="b"><use transform="matrix(0.05,0,0,0.05,0,0)" xlink:href="#m"/><use transform="matrix(0.05,0,0,0.05,10.950000000000001,0)" xlink:href="#n"/><use transform="matrix(0.05,0,0,0.05,14.9,0)" xlink:href="#j"/><use transform="matrix(0.05,0,0,0.05,18.85,0)" xlink:href="#o"/></g><path d="M127-220V0H93v-220H8v-28h204v28h-85" id="p"/><path d="M141 0L90-78 38 0H4l68-98-65-92h35l48 74 47-74h35l-64 92 68 98h-35" id="q"/><path d="M59-47c-2 24 18 29 38 22v24C64 9 27 4 27-40v-127H5v-23h24l9-43h21v43h35v23H59v120" id="r"/><g id="c"><use transform="matrix(0.05,0,0,0.05,0,0)" xlink:href="#p"/><use transform="matrix(0.05,0,0,0.05,8.950000000000001,0)" xlink:href="#o"/><use transform="matrix(0.05,0,0,0.05,18.950000000000003,0)" xlink:href="#q"/><use transform="matrix(0.05,0,0,0.05,27.950000000000003,0)" xlink:href="#r"/></g><path d="M205 0l-28-72H64L36 0H1l101-248h38L239 0h-34zm-38-99l-47-123c-12 45-31 82-46 123h93" id="s"/><path d="M84 4C-5 8 30-112 23-190h32v120c0 31 7 50 39 49 72-2 45-101 50-169h31l1 190h-30c-1-10 1-25-2-33-11 22-28 36-60 37" id="t"/><path d="M85-194c31 0 48 13 60 33l-1-100h32l1 261h-30c-2-10 0-23-3-31C134-8 116 4 85 4 32 4 16-35 15-94c0-66 23-100 70-100zm9 24c-40 0-46 34-46 75 0 40 6 74 45 74 42 0 51-32 51-76 0-42-9-74-50-73" id="u"/><path d="M100-194c62-1 85 37 85 99 1 63-27 99-86 99S16-35 15-95c0-66 28-99 85-99zM99-20c44 1 53-31 53-75 0-43-8-75-51-75s-53 32-53 75 10 74 51 75" id="v"/><g id="d"><use transform="matrix(0.05,0,0,0.05,0,0)" xlink:href="#s"/><use transform="matrix(0.05,0,0,0.05,12,0)" xlink:href="#t"/><use transform="matrix(0.05,0,0,0.05,22,0)" xlink:href="#u"/><use transform="matrix(0.05,0,0,0.05,32,0)" xlink:href="#n"/><use transform="matrix(0.05,0,0,0.05,35.95,0)" xlink:href="#v"/></g><path d="M30-248c87 1 191-15 191 75 0 78-77 80-158 76V0H30v-248zm33 125c57 0 124 11 124-50 0-59-68-47-124-48v98" id="w"/><path d="M96-169c-40 0-48 33-48 73s9 75 48 75c24 0 41-14 43-38l32 2c-6 37-31 61-74 61-59 0-76-41-82-99-10-93 101-131 147-64 4 7 5 14 7 22l-32 3c-4-21-16-35-41-35" id="x"/><path d="M114-163C36-179 61-72 57 0H25l-1-190h30c1 12-1 29 2 39 6-27 23-49 58-41v29" id="y"/><g id="e"><use transform="matrix(0.05,0,0,0.05,0,0)" xlink:href="#w"/><use transform="matrix(0.05,0,0,0.05,12,0)" xlink:href="#n"/><use transform="matrix(0.05,0,0,0.05,15.949999999999998,0)" xlink:href="#x"/><use transform="matrix(0.05,0,0,0.05,24.95,0)" xlink:href="#r"/><use transform="matrix(0.05,0,0,0.05,29.950000000000003,0)" xlink:href="#t"/><use transform="matrix(0.05,0,0,0.05,39.95,0)" xlink:href="#y"/><use transform="matrix(0.05,0,0,0.05,45.900000000000006,0)" xlink:href="#o"/></g><path d="M30-248c118-7 216 8 213 122C240-48 200 0 122 0H30v-248zM63-27c89 8 146-16 146-99s-60-101-146-95v194" id="z"/><path d="M117-194c89-4 53 116 60 194h-32v-121c0-31-8-49-39-48C34-167 62-67 57 0H25l-1-190h30c1 10-1 24 2 32 11-22 29-35 61-36" id="A"/><g id="f"><use transform="matrix(0.05,0,0,0.05,0,0)" xlink:href="#z"/><use transform="matrix(0.05,0,0,0.05,12.950000000000001,0)" xlink:href="#n"/><use transform="matrix(0.05,0,0,0.05,16.900000000000002,0)" xlink:href="#y"/><use transform="matrix(0.05,0,0,0.05,22.85,0)" xlink:href="#o"/><use transform="matrix(0.05,0,0,0.05,32.85,0)" xlink:href="#x"/><use transform="matrix(0.05,0,0,0.05,41.85,0)" xlink:href="#r"/><use transform="matrix(0.05,0,0,0.05,46.85,0)" xlink:href="#n"/><use transform="matrix(0.05,0,0,0.05,50.800000000000004,0)" xlink:href="#v"/><use transform="matrix(0.05,0,0,0.05,60.800000000000004,0)" xlink:href="#A"/></g><path d="M101-251c68 0 85 55 85 127S166 4 100 4C33 4 14-52 14-124c0-73 17-127 87-127zm-1 229c47 0 54-49 54-102s-4-102-53-102c-51 0-55 48-55 102 0 53 5 102 54 102" id="B"/><path d="M33 0v-38h34V0H33" id="C"/><path d="M80-196l47-18 7 23-49 13 32 44-20 13-27-46-27 45-21-12 33-44-49-13 8-23 47 19-2-53h23" id="D"/><g id="g"><use transform="matrix(0.05,0,0,0.05,0,0)" xlink:href="#B"/><use transform="matrix(0.05,0,0,0.05,10,0)" xlink:href="#C"/><use transform="matrix(0.05,0,0,0.05,15,0)" xlink:href="#C"/><use transform="matrix(0.05,0,0,0.05,20,0)" xlink:href="#D"/></g><path d="M27 0v-27h64v-190l-56 39v-29l58-41h29v221h61V0H27" id="E"/><use transform="matrix(0.05,0,0,0.05,0,0)" xlink:href="#E" id="h"/></defs></g></svg>