<svg xmlns="http://www.w3.org/2000/svg" xmlns:xlink="http://www.w3.org/1999/xlink" width="1360" height="1760"><g transform="translate(0 0)"><path d="M0 0h1360v1760H0z" fill="#fff"/><path d="M580 705c0-2.76 2.24-5 5-5h150c2.76 0 5 2.24 5 5v110c0 2.76-2.24 5-5 5H585c-2.76 0-5-2.24-5-5z" stroke="#000" stroke-width="2" fill="#fff"/><use xlink:href="#a" transform="matrix(1,0,0,1,588,708) translate(45.099999999999994 55.6)"/><path d="M360 965c0-2.76 2.24-5 5-5h150c2.76 0 5 2.24 5 5v110c0 2.76-2.24 5-5 5H365c-2.76 0-5-2.24-5-5z" stroke="#000" stroke-width="2" fill="#fff"/><use xlink:href="#b" transform="matrix(1,0,0,1,368,968) translate(51.025 55.6)"/><path d="M580 965c0-2.76 2.24-5 5-5h150c2.76 0 5 2.24 5 5v110c0 2.76-2.24 5-5 5H585c-2.76 0-5-2.24-5-5z" stroke="#000" stroke-width="2" fill="#fff"/><use xlink:href="#c" transform="matrix(1,0,0,1,588,968) translate(26.624999999999993 55.6)"/><path d="M800 965c0-2.76 2.24-5 5-5h150c2.76 0 5 2.24 5 5v110c0 2.76-2.24 5-5 5H805c-2.76 0-5-2.24-5-5z" stroke="#000" stroke-width="2" fill="#fff"/><use xlink:href="#d" transform="matrix(1,0,0,1,808,968) translate(51.025 55.6)"/><path d="M660 960V821" stroke="#000" stroke-width="2" fill="none"/><path d="M664.64 835.27h-9.28L660 821z" fill="#fff"/><path d="M666 836.27h-12l5.27-16.27h1.46zm-9.26-2h6.52L660 824.24z"/><path d="M440 960v-65c0-2.76 2.24-5 5-5h210c2.76 0 5-2.24 5-5v-65" stroke="#000" stroke-width="2" fill="none"/><path d="M664.64 834.27h-9.28L660 820z" fill="#fff"/><path d="M666 835.27h-12l4.95-15.27h2.1zm-9.26-2h6.52L660 823.24z"/><path d="M880 960v-65c0-2.76-2.24-5-5-5H665c-2.76 0-5-2.24-5-5v-65" stroke="#000" stroke-width="2" fill="none"/><path d="M664.64 834.27h-9.28L660 820z" fill="#fff"/><path d="M666 835.27h-12l4.95-15.27h2.1zm-9.26-2h6.52L660 823.24z"/><path d="M160 1105c0-2.76 2.24-5 5-5h150c2.76 0 5 2.24 5 5v110c0 2.76-2.24 5-5 5H165c-2.76 0-5-2.24-5-5z" stroke="#000" stroke-width="2" fill="#fff"/><use xlink:href="#e" transform="matrix(1,0,0,1,168,1108) translate(30.525 55.6)"/><path d="M360 1020H245c-2.76 0-5 2.24-5 5v74" stroke="#000" stroke-width="2" fill="none"/><path d="M254.85 1084.15L240 1099l-14.85-14.85L240 1069z"/><path d="M256.26 1084.16L240.4 1100h-.8l-15.86-15.84 16.26-16.6zm-29.7-.02L240 1097.6l13.44-13.46-13.44-13.7z"/><use xlink:href="#f" transform="matrix(1,0,0,1,327.5,1024) translate(0 14.4)"/><use xlink:href="#g" transform="matrix(1,0,0,1,247.99999999999997,1059.8666666666666) translate(0 14.4)"/><path d="M580 485c0-2.76 2.24-5 5-5h150c2.76 0 5 2.24 5 5v110c0 2.76-2.24 5-5 5H585c-2.76 0-5-2.24-5-5z" stroke="#000" stroke-width="2" fill="#fff"/><use xlink:href="#h" transform="matrix(1,0,0,1,588,488) translate(38.5 55.6)"/><path d="M1040 965c0-2.76 2.24-5 5-5h150c2.76 0 5 2.24 5 5v110c0 2.76-2.24 5-5 5h-150c-2.76 0-5-2.24-5-5z" stroke="#000" stroke-width="2" fill="#fff"/><use xlink:href="#i" transform="matrix(1,0,0,1,1048,968) translate(52.9 55.6)"/><path d="M1120 960v-65c0-2.76-2.24-5-5-5H665c-2.76 0-5-2.24-5-5v-65" stroke="#000" stroke-width="2" fill="none"/><path d="M672.73 841.52h-25.46L660 820z" fill="#fff"/><path d="M674.48 842.52h-28.96L658.84 820h2.32zm-25.45-2h21.94L660 821.96z"/><path d="M660 700v-99" stroke="#000" stroke-width="2" fill="none"/><path d="M674.85 615.85L660 631l-14.85-15.15L660 601z" fill="#fff"/><path d="M676.26 615.84L660 632.44l-16.26-16.6L659.6 600h.8zm-29.7.02l13.44 13.7 13.44-13.7L660 602.4z"/><use xlink:href="#j" transform="matrix(1,0,0,1,625,673.2) translate(0 14.4)"/><use xlink:href="#g" transform="matrix(1,0,0,1,642,622.5333333333333) translate(0 14.4)"/><defs><path d="M63-220v92h138v28H63V0H30v-248h175v28H63" id="k"/><path d="M24 0v-261h32V0H24" id="l"/><path d="M100-194c62-1 85 37 85 99 1 63-27 99-86 99S16-35 15-95c0-66 28-99 85-99zM99-20c44 1 53-31 53-75 0-43-8-75-51-75s-53 32-53 75 10 74 51 75" id="m"/><path d="M206 0h-36l-40-164L89 0H53L-1-190h32L70-26l43-164h34l41 164 42-164h31" id="n"/><path d="M100-194c63 0 86 42 84 106H49c0 40 14 67 53 68 26 1 43-12 49-29l28 8c-11 28-37 45-77 45C44 4 14-33 15-96c1-61 26-98 85-98zm52 81c6-60-76-77-97-28-3 7-6 17-6 28h103" id="o"/><path d="M114-163C36-179 61-72 57 0H25l-1-190h30c1 12-1 29 2 39 6-27 23-49 58-41v29" id="p"/><g id="a"><use transform="matrix(0.05,0,0,0.05,0,0)" xlink:href="#k"/><use transform="matrix(0.05,0,0,0.05,10.950000000000001,0)" xlink:href="#l"/><use transform="matrix(0.05,0,0,0.05,14.9,0)" xlink:href="#m"/><use transform="matrix(0.05,0,0,0.05,24.900000000000002,0)" xlink:href="#n"/><use transform="matrix(0.05,0,0,0.05,37.85,0)" xlink:href="#o"/><use transform="matrix(0.05,0,0,0.05,47.85,0)" xlink:href="#p"/></g><path d="M233-177c-1 41-23 64-60 70L243 0h-38l-65-103H63V0H30v-248c88 3 205-21 203 71zM63-129c60-2 137 13 137-47 0-61-80-42-137-45v92" id="q"/><path d="M9 0v-24l116-142H16v-24h144v24L44-24h123V0H9" id="r"/><g id="b"><use transform="matrix(0.05,0,0,0.05,0,0)" xlink:href="#q"/><use transform="matrix(0.05,0,0,0.05,12.950000000000001,0)" xlink:href="#m"/><use transform="matrix(0.05,0,0,0.05,22.950000000000003,0)" xlink:href="#r"/><use transform="matrix(0.05,0,0,0.05,31.950000000000003,0)" xlink:href="#o"/></g><path d="M212-179c-10-28-35-45-73-45-59 0-87 40-87 99 0 60 29 101 89 101 43 0 62-24 78-52l27 14C228-24 195 4 139 4 59 4 22-46 18-125c-6-104 99-153 187-111 19 9 31 26 39 46" id="s"/><path d="M106-169C34-169 62-67 57 0H25v-261h32l-1 103c12-21 28-36 61-36 89 0 53 116 60 194h-32v-121c2-32-8-49-39-48" id="t"/><path d="M141-36C126-15 110 5 73 4 37 3 15-17 15-53c-1-64 63-63 125-63 3-35-9-54-41-54-24 1-41 7-42 31l-33-3c5-37 33-52 76-52 45 0 72 20 72 64v82c-1 20 7 32 28 27v20c-31 9-61-2-59-35zM48-53c0 20 12 33 32 33 41-3 63-29 60-74-43 2-92-5-92 41" id="u"/><path d="M210-169c-67 3-38 105-44 169h-31v-121c0-29-5-50-35-48C34-165 62-65 56 0H25l-1-190h30c1 10-1 24 2 32 10-44 99-50 107 0 11-21 27-35 58-36 85-2 47 119 55 194h-31v-121c0-29-5-49-35-48" id="v"/><path d="M24-231v-30h32v30H24zM24 0v-190h32V0H24" id="w"/><g id="c"><use transform="matrix(0.05,0,0,0.05,0,0)" xlink:href="#s"/><use transform="matrix(0.05,0,0,0.05,12.950000000000001,0)" xlink:href="#t"/><use transform="matrix(0.05,0,0,0.05,22.950000000000003,0)" xlink:href="#u"/><use transform="matrix(0.05,0,0,0.05,32.95,0)" xlink:href="#v"/><use transform="matrix(0.05,0,0,0.05,47.900000000000006,0)" xlink:href="#m"/><use transform="matrix(0.05,0,0,0.05,57.900000000000006,0)" xlink:href="#v"/><use transform="matrix(0.05,0,0,0.05,72.85000000000001,0)" xlink:href="#w"/><use transform="matrix(0.05,0,0,0.05,76.80000000000001,0)" xlink:href="#l"/><use transform="matrix(0.05,0,0,0.05,80.75000000000001,0)" xlink:href="#o"/></g><path d="M205 0l-28-72H64L36 0H1l101-248h38L239 0h-34zm-38-99l-47-123c-12 45-31 82-46 123h93" id="x"/><path d="M135-143c-3-34-86-38-87 0 15 53 115 12 119 90S17 21 10-45l28-5c4 36 97 45 98 0-10-56-113-15-118-90-4-57 82-63 122-42 12 7 21 19 24 35" id="y"/><path d="M59-47c-2 24 18 29 38 22v24C64 9 27 4 27-40v-127H5v-23h24l9-43h21v43h35v23H59v120" id="z"/><g id="d"><use transform="matrix(0.05,0,0,0.05,0,0)" xlink:href="#x"/><use transform="matrix(0.05,0,0,0.05,12,0)" xlink:href="#y"/><use transform="matrix(0.05,0,0,0.05,21,0)" xlink:href="#z"/><use transform="matrix(0.05,0,0,0.05,26,0)" xlink:href="#o"/><use transform="matrix(0.05,0,0,0.05,36,0)" xlink:href="#p"/></g><path d="M160-131c35 5 61 23 61 61C221 17 115-2 30 0v-248c76 3 177-17 177 60 0 33-19 50-47 57zm-97-11c50-1 110 9 110-42 0-47-63-36-110-37v79zm0 115c55-2 124 14 124-45 0-56-70-42-124-44v89" id="A"/><path d="M84 4C-5 8 30-112 23-190h32v120c0 31 7 50 39 49 72-2 45-101 50-169h31l1 190h-30c-1-10 1-25-2-33-11 22-28 36-60 37" id="B"/><g id="e"><use transform="matrix(0.05,0,0,0.05,0,0)" xlink:href="#q"/><use transform="matrix(0.05,0,0,0.05,12.950000000000001,0)" xlink:href="#m"/><use transform="matrix(0.05,0,0,0.05,22.950000000000003,0)" xlink:href="#y"/><use transform="matrix(0.05,0,0,0.05,31.950000000000003,0)" xlink:href="#o"/><use transform="matrix(0.05,0,0,0.05,41.95,0)" xlink:href="#A"/><use transform="matrix(0.05,0,0,0.05,53.95,0)" xlink:href="#B"/><use transform="matrix(0.05,0,0,0.05,63.95,0)" xlink:href="#y"/><use transform="matrix(0.05,0,0,0.05,72.95,0)" xlink:href="#t"/></g><path d="M27 0v-27h64v-190l-56 39v-29l58-41h29v221h61V0H27" id="C"/><path d="M33 0v-38h34V0H33" id="D"/><path d="M80-196l47-18 7 23-49 13 32 44-20 13-27-46-27 45-21-12 33-44-49-13 8-23 47 19-2-53h23" id="E"/><g id="f"><use transform="matrix(0.05,0,0,0.05,0,0)" xlink:href="#C"/><use transform="matrix(0.05,0,0,0.05,10,0)" xlink:href="#D"/><use transform="matrix(0.05,0,0,0.05,15,0)" xlink:href="#D"/><use transform="matrix(0.05,0,0,0.05,20,0)" xlink:href="#E"/></g><use transform="matrix(0.05,0,0,0.05,0,0)" xlink:href="#C" id="g"/><path d="M145-31C134-9 116 4 85 4 32 4 16-35 15-94c0-59 17-99 70-100 32-1 48 14 60 33 0-11-1-24 2-32h30l-1 268h-32zM93-21c41 0 51-33 51-76s-8-73-50-73c-40 0-46 35-46 75s5 74 45 74" id="F"/><g id="h"><use transform="matrix(0.05,0,0,0.05,0,0)" xlink:href="#A"/><use transform="matrix(0.05,0,0,0.05,12,0)" xlink:href="#m"/><use transform="matrix(0.05,0,0,0.05,22,0)" xlink:href="#B"/><use transform="matrix(0.05,0,0,0.05,32,0)" xlink:href="#F"/><use transform="matrix(0.05,0,0,0.05,42,0)" xlink:href="#B"/><use transform="matrix(0.05,0,0,0.05,52,0)" xlink:href="#o"/><use transform="matrix(0.05,0,0,0.05,62,0)" xlink:href="#z"/></g><path d="M127-220V0H93v-220H8v-28h204v28h-85" id="G"/><path d="M115-194c55 1 70 41 70 98S169 2 115 4C84 4 66-9 55-30l1 105H24l-1-265h31l2 30c10-21 28-34 59-34zm-8 174c40 0 45-34 45-75s-6-73-45-74c-42 0-51 32-51 76 0 43 10 73 51 73" id="H"/><g id="i"><use transform="matrix(0.05,0,0,0.05,0,0)" xlink:href="#G"/><use transform="matrix(0.05,0,0,0.05,10.3,0)" xlink:href="#B"/><use transform="matrix(0.05,0,0,0.05,20.3,0)" xlink:href="#l"/><use transform="matrix(0.05,0,0,0.05,24.25,0)" xlink:href="#w"/><use transform="matrix(0.05,0,0,0.05,28.200000000000003,0)" xlink:href="#H"/></g><path d="M101-251c68 0 85 55 85 127S166 4 100 4C33 4 14-52 14-124c0-73 17-127 87-127zm-1 229c47 0 54-49 54-102s-4-102-53-102c-51 0-55 48-55 102 0 53 5 102 54 102" id="I"/><g id="j"><use transform="matrix(0.05,0,0,0.05,0,0)" xlink:href="#I"/><use transform="matrix(0.05,0,0,0.05,10,0)" xlink:href="#D"/><use transform="matrix(0.05,0,0,0.05,15,0)" xlink:href="#D"/><use transform="matrix(0.05,0,0,0.05,20,0)" xlink:href="#E"/></g></defs></g></svg>